<svg xmlns="http://www.w3.org/2000/svg" width="16" height="16">
  <path d="M 7 1 L 6.2226562 3.3320312 C 6.1324273 3.3659063 6.0431986 3.4023743 5.9550781 3.4414062 L 3.7578125 2.34375 L 2.34375 3.7578125 L 3.4433594 5.9570312 C 3.4023944 6.0444403 3.363963 6.1330222 3.328125 6.2226562 L 1 7 L 1 9 L 3.3320312 9.7773438 C 3.3659063 9.8675726 3.4023743 9.9568008 3.4414062 10.044922 L 2.34375 12.242188 L 3.7578125 13.65625 L 5.9570312 12.556641 C 6.0444403 12.597601 6.1330222 12.636035 6.2226562 12.671875 L 7 15 L 9 15 L 9.7773438 12.667969 C 9.8525173 12.639742 9.9262769 12.607977 10 12.576172 L 10 10.220703 C 9.4683457 10.699788 8.7720164 11 8 11 C 6.343146 11 5 9.656854 5 8 C 5 6.343146 6.343146 5 8 5 C 9.656854 5 11 6.343146 11 8 C 11 8.7720164 10.699788 9.4683456 10.220703 10 L 12.576172 10 C 12.609763 9.9265211 12.641877 9.8523686 12.671875 9.7773438 L 15 9 L 15 7 L 12.667969 6.2226562 C 12.634119 6.1324273 12.597624 6.0431986 12.558594 5.9550781 L 13.65625 3.7578125 L 12.242188 2.34375 L 10.042969 3.4433594 C 9.9555594 3.4023934 9.8669776 3.363963 9.7773438 3.328125 L 9 1 L 7 1 z M 11 11 L 11 16 L 16 16 L 16 11 L 11 11 z M 12 12 L 13 12 L 13 13 L 14 13 L 14 12 L 15 12 L 15 14 L 14 14 L 14 15 L 13 15 L 13 14 L 12 14 L 12 12 z " fill="#c0bfbc" />
</svg>
