<svg width="16px" height="16px" version="1.1" viewBox="0 0 16 16" xmlns="http://www.w3.org/2000/svg">
 <path d="m7 0c-0.554 0-1 0.446-1 1v1.3477c-0.19959 0.070262-0.39482 0.15015-0.58398 0.24023l-0.95117-0.95117c-0.39174-0.39174-1.0223-0.39174-1.4141 0l-1.4141 1.4141c-0.39174 0.39174-0.39174 1.0223 0 1.4141l0.95117 0.95117c-0.090085 0.18917-0.16997 0.3844-0.24023 0.58398h-1.3477c-0.554 0-1 0.446-1 1v2c0 0.554 0.446 1 1 1h1.3477c0.070262 0.19959 0.15015 0.39482 0.24023 0.58398l-0.95117 0.95117c-0.39174 0.39174-0.39174 1.0223 0 1.4141l1.4141 1.4141c0.39174 0.39174 1.0223 0.39174 1.4141 0l0.95117-0.95117c0.18917 0.090086 0.3844 0.16996 0.58398 0.24024v1.3477c0 0.554 0.446 1 1 1h2c0.554 0 1-0.446 1-1v-1.3477-3.4277c-0.53088 0.47718-1.2267 0.77539-2 0.77539-1.662 0-3-1.338-3-3s1.338-3 3-3 3 1.338 3 3c0 0.7733-0.29821 1.4691-0.77539 2h3.4277 1.3477c0.554 0 1-0.446 1-1v-2c0-0.554-0.446-1-1-1h-1.3477c-0.070262-0.19959-0.15014-0.39482-0.24024-0.58398l0.95117-0.95117c0.39174-0.39174 0.39174-1.0223 0-1.4141l-1.4141-1.4141c-0.39174-0.39174-1.0223-0.39174-1.4141 0l-0.95117 0.95117c-0.18916-0.090085-0.3844-0.16997-0.58398-0.24023v-1.3477c0-0.554-0.446-1-1-1h-2zm4 11v5h5v-5h-5zm1 1h1v1h1v-1h1v2h-1v1h-1v-1h-1v-2z" fill="#deddda"/>
</svg>
