<svg width="16px" height="16px" version="1.1" viewBox="0 0 16 16" xmlns="http://www.w3.org/2000/svg">
 <path d="m7.9707 0c-0.52023 0.0077789-1.017 0.21796-1.3848 0.58594l-6 6c-0.78074 0.78106-0.78074 2.0471 0 2.8281l6 6c0.78106 0.78074 2.0471 0.78074 2.8281 0l0.58594-0.58594v-2.8281l-2 2-0.36328-0.36328c0.091068-0.20397 0.16795-0.41628 0.22461-0.63672h0.63867c0.277 0 0.5-0.223 0.5-0.5v-1c0-0.277-0.223-0.5-0.5-0.5h-0.63867c-0.093784-0.36489-0.23783-0.70712-0.42383-1.0234l0.45117-0.45117c0.19587-0.19587 0.19587-0.51116 0-0.70703l-0.70703-0.70703c-0.19587-0.19587-0.51116-0.19587-0.70703 0l-0.45117 0.45117c-0.31632-0.186-0.65855-0.33004-1.0234-0.42383v-0.63867c0-0.277-0.223-0.5-0.5-0.5h-1c-0.277 0-0.5 0.223-0.5 0.5v0.63867c-0.22044 0.056656-0.43275 0.13354-0.63672 0.22461l-0.36328-0.36328 6-6 2.4648 2.4648-0.35352 0.35352c-0.19587 0.19587-0.19587 0.51116 0 0.70703l0.44727 0.44727a4 4 0 0 0-0.42774 1.0273h-0.63086c-0.277 0-0.5 0.223-0.5 0.5v1c0 0.277 0.223 0.5 0.5 0.5h0.63281a4 4 0 0 0 0.41211 1h1.4551 2.8281l0.58594-0.58594c0.78074-0.78106 0.78074-2.0471 0-2.8281l-6-6c-0.38217-0.38233-0.90283-0.5937-1.4434-0.58594zm4.6152 6.5859 1.4141 1.4141-1.4141 1.4141a2 2 0 0 1-0.021485-0.021484 2 2 0 0 1-0.56445-1.3926 2 2 0 0 1 0.58594-1.4141zm-8.5859 3.4141c1.108 0 2 0.892 2 2l-2-2zm6 0.65039c-0.043997 0.11478-0.043997 0.24069 0 0.35547v-0.35547zm1 0.34961v5h5v-5h-5zm1 1h1v1h1v-1h1v2h-1v1h-1v-1h-1v-2z" fill="#deddda"/>
</svg>
