<svg width="16" height="16" version="1.1" xmlns="http://www.w3.org/2000/svg">
 <path d="m5 0c-1.108 0-2 0.892-2 2v2.8047c-1.7945 1.0349-3 2.9668-3 5.1953 0 2.2377 1.2148 4.1773 3.0215 5.209-0.0072677-0.069615-0.021484-0.13738-0.021484-0.20898v-3c0-1.108 0.892-2 2-2h2c1.108 0 2 0.892 2 2v3c0 0.0716-0.014217 0.13937-0.021484 0.20898 0.36966-0.21108 0.70672-0.46812 1.0215-0.75v-4.459h2c0-2.2285-1.2055-4.1604-3-5.1953v-2.8047c0-1.108-0.892-2-2-2h-2zm6 11v5h5v-5h-5zm-6 1c-0.554 0-1 0.446-1 1s0.446 1 1 1h2c0.554 0 1-0.446 1-1s-0.446-1-1-1h-2zm7 0h1v1h1v-1h1v2h-1v1h-1v-1h-1v-2z" fill="#c0bfbc"/>
</svg>
