<svg width="128" height="128" version="1.0" viewBox="0 0 128 128" xmlns="http://www.w3.org/2000/svg">
 <defs>
  <linearGradient id="linearGradient3197" x1="64" x2="64" y1="44" y2="84" gradientUnits="userSpaceOnUse">
   <stop stop-color="#deddda" offset="0"/>
   <stop stop-color="#a9a9a6" stop-opacity="0" offset="1"/>
  </linearGradient>
 </defs>
 <g fill="#9a9996">
  <rect transform="rotate(45)" x="81.338" y="-53.171" width="24" height="32" ry="8"/>
  <rect transform="rotate(45)" x="117.34" y="-9.1724" width="32" height="24" ry="8"/>
  <rect transform="rotate(45)" x="81.338" y="26.828" width="24" height="32" ry="8"/>
  <rect transform="rotate(45)" x="37.338" y="-9.1724" width="32" height="24" ry="8"/>
 </g>
 <g fill="#f6f5f4">
  <rect transform="rotate(45)" x="78.508" y="-56" width="24" height="32" ry="8"/>
  <rect transform="rotate(45)" x="114.51" y="-12.002" width="32" height="24" ry="8"/>
  <rect transform="rotate(45)" x="78.508" y="23.998" width="24" height="32" ry="8"/>
  <rect transform="rotate(45)" x="34.508" y="-12.002" width="32" height="24" ry="8"/>
 </g>
 <g fill="#9a9996">
  <rect x="88" y="52" width="32" height="28" ry="8"/>
  <rect x="52" y="92" width="24" height="32" ry="8"/>
  <rect x="8" y="52" width="32" height="28" ry="8"/>
 </g>
 <g fill="#f6f5f4">
  <rect x="52" y="8" width="24" height="32" ry="8"/>
  <rect x="88" y="52" width="32" height="24" ry="8"/>
  <rect x="52" y="88" width="24" height="32" ry="8"/>
  <rect x="8" y="52" width="32" height="24" ry="8"/>
 </g>
 <path d="m63.879 22c-24.309 0-43.879 19.57-43.879 43.879v0.24219c0 24.309 19.57 43.879 43.879 43.879h0.24219c24.309 0 43.879-19.57 43.879-43.879v-0.24219c0-24.309-19.57-43.879-43.879-43.879zm0.12109 28c8.864 0 16 7.136 16 16s-7.136 16-16 16-16-7.136-16-16 7.136-16 16-16z" fill="#9a9996"/>
 <path d="m61.934 20c-23.232 0-41.934 18.702-41.934 41.934v4.1328c0 23.232 18.702 41.934 41.934 41.934h4.1328c23.232 0 41.934-18.702 41.934-41.934v-4.1328c0-23.232-18.702-41.934-41.934-41.934zm2.0664 28c8.864 0 16 7.136 16 16s-7.136 16-16 16-16-7.136-16-16 7.136-16 16-16z" fill="#f6f5f4"/>
 <path d="m64 44c-11.08 0-20 8.92-20 20s8.92 20 20 20 20-8.92 20-20-8.92-20-20-20zm0 4c8.864 0 16 7.136 16 16s-7.136 16-16 16-16-7.136-16-16 7.136-16 16-16z" fill="#a9a9a6"/>
 <path d="m64.143 36c-15.591 0-28.143 12.552-28.143 28.143s12.552 28.143 28.143 28.143 28.143-12.552 28.143-28.143-12.552-28.143-28.143-28.143zm-0.14258 8c11.08 0 20 8.92 20 20s-8.92 20-20 20-20-8.92-20-20 8.92-20 20-20z" fill="url(#linearGradient3197)"/>
</svg>
