<svg width="128" height="128" version="1.0" viewBox="0 0 128 128" xmlns="http://www.w3.org/2000/svg">
 <rect x="20" y="10" width="88" height="110" ry="8" fill="#2d9c90"/>
 <rect x="20" y="10" width="88" height="108" ry="8" fill="#d5d3cf"/>
 <rect x="20" y="8" width="88" height="104" ry="8" fill="#f6f5f4"/>
 <path d="m28 16v40h40v-40zm8 8h8v8h8v-8h8v16h-8v8h-8v-8h-8z" fill="#35b9ab"/>
 <g fill="#ecebe9">
  <rect x="72" y="22" width="28" height="2"/>
  <rect x="72" y="30" width="28" height="2"/>
  <rect x="72" y="38" width="28" height="2"/>
  <rect x="72" y="46" width="28" height="2"/>
  <rect x="72" y="54" width="28" height="2"/>
  <rect x="28" y="62" width="72" height="2"/>
  <rect x="28" y="70" width="72" height="2"/>
  <rect x="28" y="78" width="72" height="2"/>
  <rect x="28" y="86" width="72" height="2"/>
  <rect x="28" y="94" width="72" height="2"/>
  <rect x="28" y="102" width="72" height="2"/>
 </g>
</svg>
