<svg width="128" height="128" version="1.0" viewBox="0 0 128 128" xmlns="http://www.w3.org/2000/svg" xmlns:xlink="http://www.w3.org/1999/xlink">
 <rect x="20" y="16" width="88" height="104" ry="8" fill="#d5d3cf"/>
 <rect x="20" y="8" width="88" height="110" ry="8" fill="#f6f5f4"/>
 <g>
  <path d="m63.971 24a2.0002 2.0002 0 0 0-1.3848 0.58594l-36 36a2.0002 2.0002 0 0 0 0 2.8281l36 36a2.0002 2.0002 0 0 0 2.8281 0l36-36a2.0002 2.0002 0 0 0 0-2.8281l-36-36a2.0002 2.0002 0 0 0-1.4434-0.58594z" fill="#613583"/>
  <path d="m64 26-36 36 36 36 36-36z" fill="#dc8add"/>
  <path d="m78.789 40.789-2.1211 2.1211c-1.1752 1.1752-1.1752 3.0669 0 4.2422l2.6836 2.6836c-1.138 1.9242-2.0023 3.9979-2.5664 6.1611h-3.7852c-0.83183 0-1.5817 0.3357-2.124 0.8789-0.5413 0.54212-0.87598 1.2909-0.87598 2.1211v6.0029c1.98e-4 0.2067 0.0216 0.40878 0.0615 0.60352v0.0029c0.0396 0.19464 0.0975 0.38082 0.17286 0.55956v0.0029c0.07554 0.17868 0.16824 0.348 0.2754 0.50682v0.0029c0.10728 0.15882 0.23118 0.30738 0.36618 0.44238 0.54241 0.54333 1.2922 0.87905 2.1241 0.87905h3.7852c0.56412 2.1632 1.4284 4.2369 2.5664 6.1611l-2.6836 2.6836c-1.1752 1.1752-1.1752 3.0669 0 4.2422l2.1211 2.1211 12.727-12.727c-0.23514-0.23508-0.45174-0.48354-0.66503-0.73535-0.048-0.057-0.10236-0.10926-0.1494-0.16698-0.18738-0.2298-0.35826-0.47298-0.52734-0.71484-0.0588-0.0843-0.12504-0.16338-0.18162-0.249-0.16218-0.2451-0.3078-0.49728-0.4512-0.75293-0.0444-0.0795-0.095-0.15684-0.1377-0.2373-0.15642-0.29448-0.29652-0.5991-0.42774-0.90527-0.021-0.0492-0.0468-0.0969-0.0674-0.14646-0.12744-0.3087-0.23556-0.62483-0.3369-0.94336-0.0168-0.0522-0.0396-0.10254-0.0558-0.15528-0.11214-0.37002-0.20514-0.74457-0.28122-1.125-0.0759-0.37956-0.13386-0.764-0.17286-1.1514-5.1e-4 -0.0049-2e-3 -0.0096-3e-3 -0.0144-0.03874-0.39175-0.05826-0.78707-0.05841-1.1839v-0.0029c1.5e-4 -0.39684 0.0198-0.79214 0.0588-1.1836 5e-4 -0.0049 2e-3 -0.0096 3e-3 -0.0144 0.039-0.38736 0.097-0.77183 0.17286-1.1514 0.0761-0.38046 0.16914-0.75497 0.28122-1.125 0.0162-0.0528 0.039-0.10278 0.0558-0.15528 0.10134-0.31854 0.20946-0.63465 0.3369-0.94336 0.0204-0.0498 0.0462-0.0972 0.0674-0.14652 0.13122-0.30618 0.27132-0.61076 0.42774-0.90527 0.0426-0.08046 0.0931-0.1578 0.1377-0.2373 0.14334-0.2556 0.28902-0.50784 0.4512-0.75293 0.0564-0.08568 0.12276-0.16476 0.18162-0.249 0.16908-0.24186 0.33996-0.48504 0.52734-0.71485 0.0468-0.0576 0.10122-0.11004 0.1494-0.16698 0.21324-0.25176 0.4299-0.50028 0.66503-0.73535zm-41.789 15.211c-1.662 0-3 1.338-3 3v3.832c-1.3227 0.33996-2.5965 0.80122-3.8203 1.3477l9.8203 9.8203c6.6481 0 12 5.3519 12 12l9.8203 9.8203c0.54643-1.2238 1.0077-2.4976 1.3477-3.8203h3.832c1.662 0 3-1.338 3-3v-6c0-1.662-1.338-3-3-3h-3.832c-0.56269-2.1894-1.4269-4.2429-2.543-6.1406l2.707-2.707c1.1752-1.1752 1.1752-3.0669 0-4.2422l-4.2422-4.2422c-1.1752-1.1752-3.0669-1.1752-4.2422 0l-2.707 2.707c-1.898-1.116-3.9515-1.9802-6.1406-2.543v-3.832c0-1.662-1.338-3-3-3z" fill="#a347ba"/>
 </g>
</svg>
