<?xml version="1.0" encoding="UTF-8"?>
<svg version="1.1" viewBox="0 0 128 128" xmlns="http://www.w3.org/2000/svg">
<path d="m16 20-12 20 12 4z" fill="#cdab8f" stroke-width="2"/>
<path d="m112 20 12 20-12 4z" fill="#cdab8f" stroke-width="2"/>
<rect x="16" y="20" width="96" height="88" ry="0" fill="#cdab8f" stroke-width="2"/>
<rect x="16" y="20" width="96" height="80" ry="0" fill="#dec7b4" stroke-width="2"/>
<rect x="44" y="20" width="68" height="80" fill="#3584e4" stroke-width="2"/>
<rect x="44" y="100" width="68" height="8" fill="#1a5fb4" stroke-width="2"/>
<path d="m16 20-4 32h52v-32z" fill="#dec7b4" stroke-width="2"/>
<path d="m76 38-3.1094 9.328c-0.36092 0.1355-0.71784 0.2814-1.0703 0.43752l-8.7892-4.3908-5.6564 5.6564 4.3984 8.7968c-0.16386 0.34964-0.31756 0.70394-0.46092 1.0625l-9.3124 3.1094v8l9.328 3.1094c0.1355 0.36092 0.2814 0.71784 0.43752 1.0703l-4.3908 8.7892 5.6564 5.6564 8.7968-4.3984c0.34964 0.16386 0.70394 0.31756 1.0625 0.46092l3.1094 9.3124h8l3.1094-9.328c0.36092-0.1355 0.71784-0.2814 1.0703-0.43752l8.7892 4.3908 5.6564-5.6564-4.3984-8.7968c0.1638-0.34964 0.3176-0.70394 0.46096-1.0625l9.3124-3.1094v-8l-9.328-3.1094c-0.1354-0.36092-0.2814-0.71784-0.43752-1.0703l4.3908-8.7892-5.6564-5.6564-8.7968 4.3984c-0.34964-0.16386-0.70394-0.31756-1.0625-0.46092l-3.1094-9.3124zm4.0002 16c6.6274 0 12 5.3726 12 12s-5.3726 12-12 12-12-5.3726-12-12 5.3726-12 12-12z" fill="#cdab8f" stroke-width="2"/>
<path d="m76 40-3.1094 9.328c-0.36092 0.1355-0.71784 0.2814-1.0703 0.43752l-8.7892-4.3908-5.6564 5.6564 4.3984 8.7968c-0.16386 0.34964-0.31756 0.70394-0.46092 1.0625l-9.3124 3.1094v8l9.328 3.1094c0.1355 0.36092 0.2814 0.71784 0.43752 1.0703l-4.3908 8.7892 5.6564 5.6564 8.7968-4.3984c0.34964 0.16386 0.70394 0.31756 1.0625 0.46092l3.1094 9.3124h8l3.1094-9.328c0.36092-0.1355 0.71784-0.2814 1.0703-0.43752l8.7892 4.3908 5.6564-5.6564-4.3984-8.7968c0.1638-0.34964 0.3176-0.70394 0.46096-1.0625l9.3124-3.1094v-8l-9.328-3.1094c-0.1354-0.36092-0.2814-0.71784-0.43752-1.0703l4.3908-8.7892-5.6564-5.6564-8.7968 4.3984c-0.34964-0.16386-0.70394-0.31756-1.0625-0.46092l-3.1094-9.3124zm4.0002 16c6.6274 0 12 5.3726 12 12s-5.3726 12-12 12-12-5.3726-12-12 5.3726-12 12-12z" fill="#dec7b4" stroke-width="2"/>
<path d="m40 52h76l-4-32h-68z" fill="#3584e4" stroke-width="2"/>
<rect x="12" y="52" width="52" height="2" fill="#cdab8f" stroke-width="2"/>
<rect x="40" y="52" width="76" height="2" fill="#1a5fb4" stroke-width="2"/>
</svg>
