<svg width="128" height="128" version="1.0" viewBox="0 0 128 128" xmlns="http://www.w3.org/2000/svg">
 <rect x="20" y="16" width="88" height="104" ry="8" fill="#2d9c90"/>
 <rect x="20" y="16" width="88" height="102" ry="8" fill="#d5d3cf"/>
 <rect x="20" y="16" width="88" height="98" ry="8" fill="#f6f5f4"/>
 <g fill="#ecebe9">
  <rect x="28" y="70" width="72" height="2"/>
  <rect x="28" y="78" width="72" height="2"/>
  <rect x="28" y="86" width="72" height="2"/>
  <rect x="28" y="94" width="72" height="2"/>
  <rect x="28" y="102" width="72" height="2"/>
 </g>
 <g fill="#d5d3cf">
  <rect x="60" y="8" width="8" height="8" ry="4"/>
  <rect x="44" y="12" width="40" height="8" ry="3"/>
  <rect x="44" y="16" width="40" height="4" ry="0"/>
 </g>
 <rect x="44" y="18" width="40" height="2" ry="0" fill="#c0bfbc"/>
 <rect x="28" y="24" width="2" height="40" fill="#ecebe9"/>
 <rect x="30" y="62" width="40" height="2" fill="#ecebe9"/>
 <rect x="34" y="48" width="8" height="14" fill="#f6d32d"/>
 <rect x="46" y="42" width="8" height="20" fill="#3584e4"/>
 <rect x="58" y="26" width="8" height="36" fill="#33d17a"/>
 <g fill="#ecebe9">
  <rect x="74" y="62" width="26" height="2"/>
  <rect x="74" y="54" width="26" height="2"/>
  <rect x="74" y="46" width="26" height="2"/>
  <rect x="74" y="38" width="26" height="2"/>
  <rect x="74" y="30" width="26" height="2"/>
 </g>
</svg>
