<?xml version="1.0" encoding="UTF-8" standalone="no"?>
<svg
   xmlns:dc="http://purl.org/dc/elements/1.1/"
   xmlns:cc="http://creativecommons.org/ns#"
   xmlns:rdf="http://www.w3.org/1999/02/22-rdf-syntax-ns#"
   xmlns:svg="http://www.w3.org/2000/svg"
   xmlns="http://www.w3.org/2000/svg"
   height="128"
   width="128"
   id="svg32"
   viewBox="0 0 128 128"
   version="1.1">
  <defs
     id="defs36" />
  <metadata
     id="metadata2">
    <rdf:RDF>
      <cc:Work
         rdf:about="">
        <dc:format>image/svg+xml</dc:format>
        <dc:type
           rdf:resource="http://purl.org/dc/dcmitype/StillImage" />
        <dc:creator>
          <cc:Agent>
            <dc:title>Jakub Steiner</dc:title>
          </cc:Agent>
        </dc:creator>
        <dc:source>http://jimmac.musichall.cz</dc:source>
        <cc:license
           rdf:resource="http://creativecommons.org/licenses/by-sa/2.0/" />
        <dc:title></dc:title>
        <dc:subject>
          <rdf:Bag>
            <rdf:li>apparmor</rdf:li>
            <rdf:li>novell</rdf:li>
          </rdf:Bag>
        </dc:subject>
      </cc:Work>
      <cc:License
         rdf:about="http://creativecommons.org/licenses/by-sa/2.0/">
        <cc:permits
           rdf:resource="http://web.resource.org/cc/Reproduction" />
        <cc:permits
           rdf:resource="http://web.resource.org/cc/Distribution" />
        <cc:requires
           rdf:resource="http://web.resource.org/cc/Notice" />
        <cc:requires
           rdf:resource="http://web.resource.org/cc/Attribution" />
        <cc:permits
           rdf:resource="http://web.resource.org/cc/DerivativeWorks" />
        <cc:requires
           rdf:resource="http://web.resource.org/cc/ShareAlike" />
      </cc:License>
    </rdf:RDF>
  </metadata>
  <g
     id="g26"
     transform="matrix(2,0,0,2,0,32)">
    <path
       style="fill:#cdab8f"
       id="path4"
       d="M 8,-6 2,4 8,6 Z" />
    <path
       style="fill:#cdab8f"
       id="path6"
       d="M 56,-6 62,4 56,6 Z" />
    <rect
       style="fill:#cdab8f"
       id="rect8"
       ry="0"
       height="44"
       width="48"
       y="-6"
       x="8" />
    <rect
       style="fill:#dec7b4"
       id="rect10"
       ry="0"
       height="40"
       width="48"
       y="-6"
       x="8" />
    <rect
       style="fill:#0bbaf4"
       id="rect12"
       height="40"
       width="34"
       y="-6"
       x="22" />
    <rect
       style="fill:#0997c5"
       id="rect14"
       height="4"
       width="34"
       y="34"
       x="22" />
    <path
       style="opacity:0.2;fill:#63452c"
       id="path16"
       d="M 26,24 V 38 H 38 V 24 l -6,4 z" />
    <path
       style="fill:#dec7b4"
       id="path18"
       d="M 8,-6 6,10 H 32 V -6 Z" />
    <path
       style="fill:#0bbaf4"
       id="path20"
       d="M 20,10 H 58 L 56,-6 H 22 Z" />
    <rect
       style="fill:#cdab8f"
       id="rect22"
       height="1"
       width="26"
       y="10"
       x="6" />
    <rect
       style="fill:#0997c5"
       id="rect24"
       height="1"
       width="38"
       y="10"
       x="20" />
  </g>
  <path
     style="fill:#cdab8f;fill-opacity:1;stroke-width:2"
     id="path30-3"
     d="m 91.99998,63 -1.55468,4.664 c -0.180458,0.06775 -0.358919,0.140697 -0.53516,0.21876 l -4.3946,-2.1954 -2.8282,2.8282 2.1992,4.3984 c -0.08193,0.174818 -0.158784,0.351972 -0.23046,0.53124 l -4.6562,1.55468 v 4 l 4.664,1.55468 c 0.06775,0.180458 0.140697,0.358919 0.21876,0.53516 l -2.1954,4.3946 2.8282,2.8282 4.3984,-2.1992 c 0.174818,0.08193 0.351972,0.158784 0.53124,0.23046 l 1.55468,4.6562 h 4 l 1.55468,-4.664 c 0.180458,-0.06775 0.358919,-0.140697 0.53516,-0.21876 l 4.3946,2.1954 2.8282,-2.8282 -2.1992,-4.3984 c 0.0819,-0.174818 0.1588,-0.351972 0.23048,-0.53124 l 4.6562,-1.55468 v -4 l -4.664,-1.55468 c -0.0677,-0.180458 -0.1407,-0.358919 -0.21876,-0.53516 l 2.1954,-4.3946 -2.8282,-2.8282 -4.3984,2.1992 C 97.911102,67.804728 97.733948,67.727876 97.55468,67.6562 L 96,63 Z m 2.00014,7.9999 c 3.313708,0 6,2.686292 6,6 0,3.313708 -2.686292,6 -6,6 -3.313708,0 -6,-2.686292 -6,-6 0,-3.313708 2.686292,-6 6,-6 z" />
  <path
     style="fill:#dec7b4;fill-opacity:1;stroke-width:2"
     id="path30"
     d="m 92,64 -1.55468,4.664 c -0.180458,0.06775 -0.358919,0.140697 -0.53516,0.21876 l -4.3946,-2.1954 -2.8282,2.8282 2.1992,4.3984 c -0.08193,0.174818 -0.158784,0.351972 -0.23046,0.53124 l -4.6562,1.55468 v 4 l 4.664,1.55468 c 0.06775,0.180458 0.140697,0.358919 0.21876,0.53516 l -2.1954,4.3946 2.8282,2.8282 4.3984,-2.1992 c 0.174818,0.08193 0.351972,0.158784 0.53124,0.23046 l 1.55468,4.6562 h 4 l 1.55468,-4.664 c 0.180458,-0.06775 0.358919,-0.140697 0.53516,-0.21876 l 4.3946,2.1954 2.8282,-2.8282 -2.1992,-4.3984 c 0.0819,-0.174818 0.1588,-0.351972 0.23048,-0.53124 l 4.6562,-1.55468 v -4 l -4.664,-1.55468 c -0.0677,-0.180458 -0.1407,-0.358919 -0.21876,-0.53516 l 2.1954,-4.3946 -2.8282,-2.8282 -4.3984,2.1992 C 97.911122,68.804728 97.733968,68.727876 97.5547,68.6562 L 96.00002,64 Z m 2.00014,7.9999 c 3.313708,0 6,2.686292 6,6 0,3.313708 -2.686292,6 -6,6 -3.313708,0 -6,-2.686292 -6,-6 0,-3.313708 2.686292,-6 6,-6 z" />
</svg>
