<?xml version="1.0" encoding="UTF-8"?>
<svg version="1.1" viewBox="0 0 128 128" xmlns="http://www.w3.org/2000/svg">
<g transform="matrix(2,0,0,2,0,32)">
<path d="m8-6-6 10 6 2z" fill="#cdab8f"/>
<path d="m56-6 6 10-6 2z" fill="#cdab8f"/>
<rect x="8" y="-6" width="48" height="44" ry="0" fill="#cdab8f"/>
<rect x="8" y="-6" width="48" height="40" ry="0" fill="#dec7b4"/>
<rect x="22" y="-6" width="34" height="40" fill="#0bbaf4"/>
<rect x="22" y="34" width="34" height="4" fill="#0997c5"/>
<path d="m26 24v14h12v-14l-6 4z" fill="#63452c" opacity=".2"/>
<path d="m8-6-2 16h26v-16z" fill="#dec7b4"/>
<path d="m20 10h38l-2-16h-34z" fill="#0bbaf4"/>
<rect x="6" y="10" width="26" height="1" fill="#cdab8f"/>
<rect x="20" y="10" width="38" height="1" fill="#0997c5"/>
</g>
<path d="m92 63-1.5547 4.664c-0.18046 0.06775-0.35892 0.1407-0.53516 0.21876l-4.3946-2.1954-2.8282 2.8282 2.1992 4.3984c-0.08193 0.17482-0.15878 0.35197-0.23046 0.53124l-4.6562 1.5547v4l4.664 1.5547c0.06775 0.18046 0.1407 0.35892 0.21876 0.53516l-2.1954 4.3946 2.8282 2.8282 4.3984-2.1992c0.17482 0.08193 0.35197 0.15878 0.53124 0.23046l1.5547 4.6562h4l1.5547-4.664c0.18046-0.06775 0.35892-0.1407 0.53516-0.21876l4.3946 2.1954 2.8282-2.8282-2.1992-4.3984c0.0819-0.17482 0.1588-0.35197 0.23048-0.53124l4.6562-1.5547v-4l-4.664-1.5547c-0.0677-0.18046-0.1407-0.35892-0.21876-0.53516l2.1954-4.3946-2.8282-2.8282-4.3984 2.1992c-0.17482-0.081932-0.35197-0.15878-0.53124-0.23046l-1.5547-4.6562zm2.0001 7.9999c3.3137 0 6 2.6863 6 6s-2.6863 6-6 6-6-2.6863-6-6 2.6863-6 6-6z" fill="#cdab8f" />
<path d="m92 64-1.5547 4.664c-0.18046 0.06775-0.35892 0.1407-0.53516 0.21876l-4.3946-2.1954-2.8282 2.8282 2.1992 4.3984c-0.08193 0.17482-0.15878 0.35197-0.23046 0.53124l-4.6562 1.5547v4l4.664 1.5547c0.06775 0.18046 0.1407 0.35892 0.21876 0.53516l-2.1954 4.3946 2.8282 2.8282 4.3984-2.1992c0.17482 0.08193 0.35197 0.15878 0.53124 0.23046l1.5547 4.6562h4l1.5547-4.664c0.18046-0.06775 0.35892-0.1407 0.53516-0.21876l4.3946 2.1954 2.8282-2.8282-2.1992-4.3984c0.0819-0.17482 0.1588-0.35197 0.23048-0.53124l4.6562-1.5547v-4l-4.664-1.5547c-0.0677-0.18046-0.1407-0.35892-0.21876-0.53516l2.1954-4.3946-2.8282-2.8282-4.3984 2.1992c-0.17482-0.081932-0.35197-0.15878-0.53124-0.23046l-1.5547-4.6562zm2.0001 7.9999c3.3137 0 6 2.6863 6 6s-2.6863 6-6 6-6-2.6863-6-6 2.6863-6 6-6z" fill="#dec7b4" />
</svg>
